<?xml version="1.0" encoding="UTF-8"?>
<svg xmlns="http://www.w3.org/2000/svg" xmlns:xlink="http://www.w3.org/1999/xlink" width="24px" height="24px" viewBox="0 0 24 24" version="1.1">
<g id="surface1">
<path style=" stroke:none;fill-rule:nonzero;fill:#fff;fill-opacity:1;" d="M 12 0 C 5.371094 0 0 5.371094 0 12 C 0 18.628906 5.371094 24 12 24 C 18.628906 24 24 18.628906 24 12 C 24 5.371094 18.628906 0 12 0 Z M 12 6 C 13.863281 6 15.375 7.511719 15.375 9.375 C 15.375 11.238281 13.867188 12.75 12 12.75 C 10.136719 12.75 8.625 11.238281 8.625 9.375 C 8.625 7.511719 10.132812 6 12 6 Z M 12 21 C 9.519531 21 7.269531 19.992188 5.640625 18.363281 C 6.398438 16.402344 8.273438 15 10.5 15 L 13.5 15 C 15.726562 15 17.601562 16.402344 18.359375 18.363281 C 16.730469 19.992188 14.480469 21 12 21 Z M 12 21 "/>
</g>
</svg>
