<?xml version="1.0" encoding="UTF-8"?>
<svg xmlns="http://www.w3.org/2000/svg" xmlns:xlink="http://www.w3.org/1999/xlink" width="21px" height="24px" viewBox="0 0 21 24" version="1.1">
    <g id="surface1">
        <path style=" stroke:none;fill-rule:nonzero;fill:#fff;fill-opacity:1;" d="M 0 4.5 C 0 3.671875 0.671875 3 1.5 3 L 19.5 3 C 20.328125 3 21 3.671875 21 4.5 C 21 5.328125 20.328125 6 19.5 6 L 1.5 6 C 0.671875 6 0 5.328125 0 4.5 Z M 0 12 C 0 11.171875 0.671875 10.5 1.5 10.5 L 19.5 10.5 C 20.328125 10.5 21 11.171875 21 12 C 21 12.828125 20.328125 13.5 19.5 13.5 L 1.5 13.5 C 0.671875 13.5 0 12.828125 0 12 Z M 19.5 21 L 1.5 21 C 0.671875 21 0 20.328125 0 19.5 C 0 18.671875 0.671875 18 1.5 18 L 19.5 18 C 20.328125 18 21 18.671875 21 19.5 C 21 20.328125 20.328125 21 19.5 21 Z M 19.5 21 "/>
    </g>
</svg>
