<?xml version="1.0" encoding="UTF-8"?>
<svg xmlns="http://www.w3.org/2000/svg" xmlns:xlink="http://www.w3.org/1999/xlink" width="24px" height="24px" viewBox="0 0 24 24" version="1.1">
<g id="surface1">
<path style=" stroke:none;fill-rule:nonzero;fill:#fff;fill-opacity:1;" d="M 23.453125 20.796875 L 17.839844 15.1875 C 19.117188 13.292969 19.746094 10.925781 19.410156 8.40625 C 18.835938 4.113281 15.320312 0.625 11.023438 0.0820312 C 4.640625 -0.726562 -0.726562 4.640625 0.0820312 11.023438 C 0.625 15.320312 4.117188 18.839844 8.40625 19.410156 C 10.925781 19.746094 13.292969 19.117188 15.1875 17.84375 L 20.800781 23.453125 C 21.53125 24.1875 22.71875 24.1875 23.453125 23.453125 C 24.183594 22.71875 24.183594 21.53125 23.453125 20.796875 Z M 3.707031 9.75 C 3.707031 6.441406 6.398438 3.75 9.707031 3.75 C 13.015625 3.75 15.707031 6.441406 15.707031 9.75 C 15.707031 13.058594 13.015625 15.75 9.707031 15.75 C 6.398438 15.75 3.707031 13.058594 3.707031 9.75 Z M 3.707031 9.75 "/>
</g>
</svg>
