<?xml version="1.0" encoding="UTF-8"?>
<svg xmlns="http://www.w3.org/2000/svg" xmlns:xlink="http://www.w3.org/1999/xlink" width="27px" height="24px" viewBox="0 0 27 24" version="1.1">
    <g id="surface1">
        <path style=" stroke:none;fill-rule:nonzero;fill:rgb(100%,      100%,100%);fill-opacity:1;" d="M 0 1.125 C 0 0.503906 0.503906 0 1.125 0 L 4.5 0 C 5.039062 0 5.503906 0.382812 5.605469 0.914062 L 5.675781 1.5 L 25.398438 1.5 C 26.347656 1.5 27.109375 2.449219 26.839844 3.40625 L 24.308594 12.40625 C 24.125 13.054688 23.535156 13.5 22.867188 13.5 L 16.875 13.5 L 16.875 8.339844 L 17.953125 9.378906 C 18.394531 9.859375 19.105469 9.859375 19.503906 9.378906 C 19.984375 8.980469 19.984375 8.269531 19.503906 7.828125 L 16.503906 4.828125 C 16.105469 4.390625 15.394531 4.390625 14.953125 4.828125 L 11.953125 7.828125 C 11.515625 8.269531 11.515625 8.980469 11.953125 9.378906 C 12.394531 9.859375 13.105469 9.859375 13.503906 9.378906 L 14.625 8.339844 L 14.625 13.5 L 8 13.5 L 8.433594 15.75 L 22.875 15.75 C 23.5 15.75 24 16.25 24 16.875 C 24 17.5 23.5 18 22.875 18 L 7.457031 18 C 6.960938 18 6.496094 17.617188 6.394531 17.085938 L 3.570312 2.25 L 1.125 2.25 C 0.503906 2.25 0 1.746094 0 1.125 Z M 10.5 21.75 C 10.5 22.992188 9.492188 24 8.25 24 C 7.007812 24 6 22.992188 6 21.75 C 6 20.507812 7.007812 19.5 8.25 19.5 C 9.492188 19.5 10.5 20.507812 10.5 21.75 Z M 19.5 21.75 C 19.5 20.507812 20.507812 19.5 21.75 19.5 C 22.992188 19.5 24 20.507812 24 21.75 C 24 22.992188 22.992188 24 21.75 24 C 20.507812 24 19.5 22.992188 19.5 21.75 Z M 19.5 21.75 "/>
    </g>
</svg>
